<?xml version="1.0" encoding="UTF-8" standalone="no"?>
<!-- Created with Inkscape (http://www.inkscape.org/) -->

<svg
   version="1.1"
   id="svg2"
   width="1182.6667"
   height="1569.3333"
   viewBox="0 0 1182.6667 1569.3333"
   sodipodi:docname="Black&amp;White.svg"
   inkscape:version="1.2.1 (9c6d41e410, 2022-07-14)"
   xmlns:inkscape="http://www.inkscape.org/namespaces/inkscape"
   xmlns:sodipodi="http://sodipodi.sourceforge.net/DTD/sodipodi-0.dtd"
   xmlns="http://www.w3.org/2000/svg"
   xmlns:svg="http://www.w3.org/2000/svg">
  <defs
     id="defs6" />
  <sodipodi:namedview
     id="namedview4"
     pagecolor="#ffffff"
     bordercolor="#000000"
     borderopacity="0.25"
     inkscape:showpageshadow="2"
     inkscape:pageopacity="0.0"
     inkscape:pagecheckerboard="0"
     inkscape:deskcolor="#d1d1d1"
     showgrid="false"
     inkscape:zoom="0.52824981"
     inkscape:cx="927.59143"
     inkscape:cy="743.96619"
     inkscape:window-width="1920"
     inkscape:window-height="1009"
     inkscape:window-x="-8"
     inkscape:window-y="-8"
     inkscape:window-maximized="1"
     inkscape:current-layer="g8" />
  <g
     inkscape:groupmode="layer"
     inkscape:label="Image"
     id="g8">
    <path
       id="path1733"
       style="fill:#000000;fill-opacity:1;stroke:#000000;stroke-width:2;stroke-opacity:1;stroke-linecap:square;stroke-linejoin:bevel;stroke-dasharray:none"
       d="m 704.21875,355.38672 c -34.07887,0.89589 -66.22586,14.05935 -99.58594,19.63867 -37.21303,6.73007 -74.14757,16.63969 -111.92383,18.76172 -37.24785,0.35972 -74.44593,-7.25011 -109.49218,-19.76172 -6.44076,-2.29309 -13.58524,-9.82106 -20.75782,-4.96094 -12.12571,6.71446 -26.91004,6.59509 -40.14257,10.25196 -33.91285,6.8221 -68.29291,20.8105 -91.77735,47.07226 -10.77239,12.18387 -17.31165,28.86561 -13.04492,45.13867 4.06169,25.1336 9.4073,50.0421 13.80078,75.11914 -27.20278,25.99074 -55.60634,50.82314 -84.63086,74.78711 -16.15601,12.67324 -34.24373,25.46845 -41.16992,45.78516 -8.671222,16.90752 -21.31834,31.26126 -31.476562,47.14648 -3.479448,8.72321 -13.435944,16.47597 -11.300781,26.73243 4.509394,4.61295 8.54338,-4.09131 11.132812,-6.96485 16.638085,-25.94101 36.336451,-49.75373 55.025391,-74.15429 3.02446,-6.1964 8.67737,-10.30748 11.9668,-16.48047 11.77436,-11.3768 25.37602,-20.82166 37.36718,-32.03907 15.83,-14.38804 32.26496,-27.97897 48.28907,-42.14843 3.80359,-2.18248 9.55846,-10.72737 11.07812,-2.70508 7.24347,18.12232 19.824,33.35017 34.88477,45.55273 12.66504,9.94558 25.66987,19.99231 40.61914,26.2461 37.18522,13.47637 78.00017,5.37044 114.96484,-4.6836 20.00094,-5.91439 39.44171,-13.80175 57.94141,-23.40429 6.82943,10.36161 15.86746,19.12223 23.16992,28.94921 -51.72828,4.74365 -103.98132,4.03077 -155.54687,10.76954 -16.61389,3.21423 -32.86546,8.31352 -48.7754,13.71679 -28.65081,9.12279 -58.40768,15.11725 -86.8496,24.96289 -22.3343,8.33778 -43.57098,19.68464 -67.16211,24.29493 -29.72243,7.75729 -59.873459,17.05464 -84.917973,35.41015 -7.278172,0.32441 -6.548416,9.93772 -6.642578,15.24219 0.167529,8.40849 1.809772,18.7452 10.972656,21.875 33.786625,15.90229 72.843635,13.13596 108.748045,7.48047 63.17754,-10.54681 122.82835,-35.28853 184.60547,-51.22266 3.1892,2.55167 4.49947,7.93745 7.72461,11.00977 3.35383,5.30297 5.55246,13.42643 2.25,19.15039 -13.41905,6.16806 -30.12999,6.59157 -40.98438,17.93554 -15.31445,15.65201 -11.34118,39.48954 -10.02539,59.27149 2.06912,22.68512 8.11611,45.11561 20.40235,64.49023 22.45683,39.55408 46.4651,78.45264 74.28515,114.42966 9.38667,12.6541 20.23441,24.7322 24.51563,40.293 6.65904,17.1606 11.52114,34.9229 17.43164,52.2793 3.36632,10.3403 5.33334,21.0765 7.91211,31.4512 8.00617,23.5013 12.93322,48.0365 21,71.5742 6.71271,22.8886 14.07197,45.8576 17.9082,69.3848 -1.47813,21.7828 -8.31006,45.4887 3.07422,65.9062 6.88303,14.7214 18.70045,27.7388 34.52735,32.6582 7.89513,4.8076 16.87624,7.5528 26.27343,6.3047 16.25962,0.8996 32.16622,-3.2169 46.48047,-10.8281 14.40117,-5.8578 29.13417,-11.1122 43.09766,-17.9883 16.65898,-5.3797 31.48776,-16.1871 48.31445,-20.8652 3.05817,0.7776 4.77354,-3.8302 8.18164,-4.0157 34.71269,-15.5519 70.04761,-30.7851 101.47656,-52.4316 20.45954,-19.42 47.30868,-31.1663 66.76368,-52 26.98965,-26.1819 52.75789,-53.6069 77.53906,-81.8477 18.89066,-23.3312 36.84277,-47.4594 54.64847,-71.6113 20.9486,-40.0263 39.9021,-81.3938 53.6777,-124.50976 7.7225,-24.40219 13.0079,-49.58255 17.0449,-74.80469 3.4444,-56.97185 4.3555,-114.66961 -6.0762,-171.00586 -4.6448,-33.51462 -13.0991,-66.29283 -25.5,-97.74805 -2.7191,-9.91618 -9.0228,-19.37314 -9.2265,-29.75781 8.2314,-14.19861 10.6093,-34.40174 0.4453,-48.23047 -9.2803,-4.7308 -12.8624,-15.76565 -22.6797,-20.24023 -8.3858,-6.22983 -15.812,-14.10261 -25.96288,-17.3711 -10.11332,-5.952 -20.09837,-12.90112 -30.00976,-18.76171 -45.75911,-32.16226 -94.91174,-59.32146 -145.01368,-84.10157 -8.46567,-3.57564 -14.96363,-11.99365 -24.56445,-12.22461 -30.32675,-13.16169 -59.79697,-33.54387 -94.30078,-32.20312 z m 10.94922,16.51953 c 18.60302,0.94432 35.08084,11.41078 51.97461,18.26758 35.41966,17.93844 70.96964,35.81409 106.18359,54.21875 41.00037,22.51645 79.96119,48.87393 119.32617,74.10742 11.26536,8.44114 22.70676,16.66418 34.51956,24.36328 2.6742,0.0962 7.9842,6.26289 2.0937,5.16602 -31.54405,1.28672 -63.68896,-0.74089 -94.6406,7.21679 -6.4852,1.12503 -13.51575,3.94643 -19.68359,4.14258 -4.35455,-11.21016 -16.39074,-15.01181 -26.97071,-17.85742 -42.42605,-10.87447 -82.89736,-27.97173 -125.1914,-39.35742 -25.70195,-8.31118 -54.54274,-13.7064 -80.67383,-4.16992 -35.71414,16.3337 -63.63261,47.13924 -81.53125,81.62109 -8.22698,16.63103 -10.6491,35.38522 -11.9336,53.60156 -4.09813,4.19446 -6.46905,-5.67729 -9.35546,-7.8789 -8.38894,-11.95605 -16.71879,-23.9548 -25.11133,-35.90625 9.2989,-8.73568 17.19509,-20.29868 15.84961,-33.67774 -1.22326,-30.81712 -12.55108,-61.52453 -33.66797,-84.30469 -13.29316,-15.65199 -29.6831,-28.40831 -47.66016,-38.16796 -11.02361,-7.52296 -21.65782,-15.50945 -31.20117,-24.89454 33.77582,3.76263 68.16482,0.89902 100.9668,-7.99804 42.02706,-8.36528 84.07486,-17.06183 125.86133,-26.31055 10.20759,-1.59974 20.51565,-2.01744 30.8457,-2.18164 z m -296.70117,33.8125 c 16.79428,1.1838 26.00332,17.29514 38.93945,25.83789 11.44169,10.06898 25.4578,16.85362 37.28125,26.05859 15.25076,10.27954 28.94286,23.2187 38.54688,39.11915 6.64108,8.6709 8.91588,19.60981 15.90234,28.0039 2.52183,9.04662 -0.44308,19.24955 5,27.44336 0.8505,8.26796 -4.23084,16.38395 -9.69922,22.22461 -7.99346,-9.18608 -18.42309,-16.66765 -30.9707,-17.34961 -14.01739,-3.21356 -31.73178,3.92674 -33.99414,19.43164 -2.06391,7.93652 0.77278,18.84171 -8.55078,22.89844 -6.48133,4.20575 -13.92483,6.51203 -20.64258,10.27344 -5.27982,2.55526 -11.52641,-6.45195 -15.42774,0.65039 -0.29674,2.57542 0.31291,5.33031 -3.30273,5.82226 -5.7459,3.63819 -12.83678,0.27899 -18.19531,4.45508 -12.43974,3.93928 -26.11333,1.50493 -38.21094,6.67383 -26.55806,3.47032 -55.9692,1.80405 -77.58594,-15.98828 -6.71447,-3.74676 -12.85106,-9.76968 -12.42187,-18.03516 -1.55147,-10.35668 -1.59164,-21.30121 -6.22657,-30.78516 -1.26697,-8.80993 -0.85988,-17.85768 -3.02929,-26.46289 -0.24556,-8.25582 -1.94808,-18.57853 6.43164,-23.5664 12.8179,-10.92354 31.81823,-14.82095 41.13281,-29.61133 3.94182,-9.08852 4.01944,-19.7706 2.6875,-29.62891 -3.29545,-5.51076 -12.63424,-1.77701 -16.33398,-6.99804 -4.87099,-0.33614 -2.10221,-4.9265 -4.04102,-7.74219 -1.68608,-3.30209 -4.42108,-9.56206 1.01562,-10.49219 5.25446,-4.91513 12.63392,-6.8121 18.98047,-10.25195 13.10423,-4.45838 27.50178,-9.46516 41.31836,-6.68555 4.19637,2.85726 3.48731,9.31473 9.17969,10.64649 5.72023,2.25725 14.41779,9.1498 19.69141,2.76953 3.00315,-5.81065 7.26047,-10.75619 13.34179,-13.16797 3.04627,-1.75147 5.23196,-5.96701 9.1836,-5.54297 z m 291.26758,100.03516 c 36.15547,1.64023 70.23962,15.72581 104.56445,26.09179 26.86841,8.17812 52.83658,19.02356 80.17383,25.66992 4.38014,0.0792 10.5266,7.14601 4.20703,9.2461 -32.39948,11.86178 -60.13547,33.53093 -86.39844,55.39258 -20.17064,17.0798 -36.50496,38.05394 -50.81445,60.13476 -3.03187,5.00631 -9.0925,-2.26717 -13.22461,-2.60547 -46.28086,-18.93035 -94.9358,-32.07868 -144.19141,-40.19531 -4.41234,-22.51541 2.5173,-46.23841 13.64063,-65.93164 13.46818,-22.2295 31.98805,-41.69996 53.60937,-56.11133 11.57061,-7.17421 24.65076,-12.04838 38.4336,-11.6914 z m 282.4746,54.67968 c 14.46742,0.50804 29.36472,0.57139 43.34762,4.34961 4.6321,6.49687 -2.1323,14.76779 -6.207,19.94727 -25.327,27.82144 -62.20962,40.15559 -94.21874,58.45312 -32.05062,17.9212 -65.49267,35.2594 -91.63477,61.53711 -15.25881,19.52227 -21.03342,44.50289 -27.5957,67.93164 -6.69282,25.49578 -14.14477,50.96485 -23.11523,75.69336 -8.49812,18.71588 -15.18932,38.66257 -20.55078,58.61524 -4.84036,21.30468 -5.4196,43.31451 -9.38086,64.64258 -2.00182,9.39903 -4.29665,20.41979 -8.91407,27.96093 -1.26876,-3.19885 -6.30292,-1.79996 -8.22461,-4.96289 -11.15168,-10.28637 -23.92644,-21.43707 -37.01367,-27.36133 4.1438,-3.0587 -2.64128,-4.06391 -4.97461,-3.33203 -4.03952,-1.16562 -7.75512,-6.41109 -6.68945,-10.14648 4.60317,-0.1948 0.16905,-6.50948 1.29883,-9.29688 -0.81637,-37.83281 -2.41797,-76.33737 3.60156,-113.65625 0.13219,-0.15212 0.2197,-0.35431 0.34766,-0.51171 0.0236,-0.11603 0.049,-0.23184 0.0742,-0.34766 0.0218,-1.03373 0.0507,-2.06717 0.10937,-3.09961 0.0851,-1.38216 0.2004,-2.7605 0.37305,-4.13477 0.10395,-1.16559 0.23618,-2.33025 0.24218,-3.50195 0.0377,-1.22851 0.088,-2.45924 0.22266,-3.68164 0.1249,-1.0688 0.23771,-2.14043 0.41797,-3.20117 0.20503,-1.00233 0.4459,-1.99767 0.93945,-2.9043 0.36626,-0.72076 0.75511,-1.42761 1.1875,-2.11133 0.45127,-0.70288 0.89102,-1.41228 1.32032,-2.1289 0.50165,-0.78946 1.02111,-1.56805 1.49804,-2.37305 0.32964,-0.55637 0.67412,-1.04702 1.02735,-1.48047 0.20252,-0.51345 0.5983,-1.13062 0.68945,-1.59765 21.98582,-45.62047 48.78844,-88.77506 76.32617,-131.22657 24.05061,-32.37314 56.88542,-57.56721 91.64063,-77.61914 34.53072,-19.43353 74.07874,-30.26023 113.85546,-30.45508 z m -488.94336,12.52539 c 8.25935,1.0105 19.56125,-0.86779 24.11719,7.99805 9.49931,9.56493 11.17231,24.32512 21.77344,33.05859 3.69307,1.2907 3.36646,6.42914 7.42773,7.875 3.21095,4.00688 2.65986,9.99014 6.46485,13.93946 4.21527,6.2439 7.76331,13.03062 12.10742,18.92773 -0.88902,4.43158 6.09517,4.23243 6.35156,8.61328 3.71631,1.9061 4.08732,6.94254 7.73047,8.90235 1.63634,2.63998 3.98483,9.3586 -1.92969,7.85351 -11.43389,-2.305 -23.45724,-4.13064 -34.3164,-8.76172 -11.56314,-8.30792 -16.79873,-22.60344 -26.30274,-32.94531 -5.97604,-6.9474 -10.80907,-15.68151 -16.34179,-22.4414 0.37104,-3.78747 -5.62698,-4.66162 -5.9336,-8.78711 -2.18592,-7.07775 -12.67903,-9.47625 -10.62109,-17.82227 0.48965,-6.20591 0.12318,-17.43209 9.47265,-16.41016 z m 529.31638,33.61524 c 10.6662,17.52806 15.2105,38.15306 21.3125,57.58984 20.0199,75.85005 23.2217,155.72412 13.6758,233.47071 -5.4446,37.01784 -15.3167,73.41871 -30.6367,107.64843 -7.752,19.3965 -16.9881,38.197 -27.6055,56.1484 -1.437,3.0765 -2.9444,6.4666 -6.1621,6.7461 -0.4657,10.0893 -8.91783,16.8812 -13.58006,25.1719 -13.29738,18.0462 -26.04711,36.9576 -40.63867,53.7656 -7.70801,3.7259 -14.70629,-3.8026 -22.15625,-5.0703 -10.23184,-4.4305 -26.19012,-5.6026 -29.30664,-18.6094 -8.53734,-14.837 -16.62213,-29.9344 -26.60547,-43.9121 -4.49758,-8.4866 -10.81843,-16.3224 -15.86329,-24.1484 -0.66506,-3.1248 -3.70188,-4.0725 -4.2539,-7.1465 -3.89004,-4.8695 -5.43761,-11.2521 -10.0625,-15.4121 -2.49721,-4.0066 -5.06551,-8.7303 -2.1582,-13.0195 -0.87446,-2.8358 3.63092,-4.4221 3.79882,-7.6524 6.81951,-15.16198 10.92559,-33.68348 2.03711,-48.91598 -2.98656,-5.98686 -3.84732,-12.48262 -3.52148,-19.03516 -4.83227,-10.59701 0.20833,-22.85139 1.28906,-33.85352 5.99609,-33.24913 17.21445,-65.95629 18.25586,-99.97265 -0.0933,-20.05074 -8.57368,-38.75132 -19.07617,-55.33789 0.47388,-2.69018 -2.32449,-4.83151 -0.36719,-7.73242 5.35365,-18.03444 15.17306,-35.11137 30.91016,-45.97657 29.11744,-22.31005 62.45906,-39.00075 94.87109,-55.64843 20.23623,-10.52256 40.72322,-20.93282 58.77152,-35.06641 2.2812,-1.43633 4.5209,-3.10685 7.0722,-4.03125 z m -432.91989,46.61133 0.58008,0.0312 c 49.14925,8.1152 98.24133,20.68559 143.77343,41.60742 3.20536,1.0691 6.89525,3.94073 3.60743,7.42187 -9.29838,16.82809 -18.02955,34.41288 -30.21485,49.33985 -3.48902,5.30863 -6.5163,-3.83819 -9.46875,-5.73438 -18.9092,-23.55673 -47.84331,-35.22736 -74.30859,-47.64062 -12.3716,-14.03637 -24.47139,-28.70953 -33.92383,-44.83789 z m -81.11719,0.71093 c 1.49894,2.22575 2.99716,4.45005 4.4961,6.67579 0.85415,1.98526 6.41824,8.01914 1.13671,7.33203 -45.40384,-4.55948 -91.21507,-3.07633 -136.52539,1.97461 -29.3299,2.54769 -59.83213,5.70959 -88.27148,10.03515 31.99301,-13.31411 66.44426,-18.90203 100.86914,-20.58203 39.40348,-2.38456 78.90249,-2.76621 118.29492,-5.43555 z m -51.19336,29.14649 c 48.04164,1.1662 97.11323,4.70817 141.56055,24.51172 17.7531,7.78662 36.20349,14.22673 52.65234,24.61133 3.78454,-0.40574 5.41462,3.57254 9.00391,4.16992 14.06382,9.85454 26.63452,22.10774 36.58594,36.14648 -5.1376,7.21987 -4.70957,17.56716 -11.67969,23.38867 -7.53996,1.98136 -15.94406,-2.27492 -22.48242,-5.74023 -10.45524,-6.60669 -23.00607,-9.80484 -32.33789,-17.98047 -15.21675,-6.9795 -31.69024,-10.2683 -47.46094,-15.74805 -18.516,-5.6164 -37.99578,-6.49315 -56.92578,-9.95703 -11.22009,0.019 -22.05793,-4.30098 -33.36719,-4.52148 -15.19536,-2.08527 -30.7914,-5.66754 -45.84961,-6.74024 -5.26698,-4.88144 -14.08464,-4.60317 -20.82031,-6.64648 -19.86164,-4.67545 -40.76118,-5.96008 -60.97266,-3.03711 -9.27474,2.89193 -19.23712,2.25989 -28.11914,6.79688 -8.66186,3.62081 -18.5115,3.85353 -26.91211,7.73632 -3.0692,1.61356 -7.37118,0.0282 -9.26367,4.08594 -7.29509,4.17433 -16.33314,4.80081 -24.04297,8.45703 -20.13614,4.78844 -39.0986,13.59145 -59.78125,16.28906 -8.28438,4.84868 -18.6716,5.38894 -28.29101,4.36915 -5.07156,0.15358 -8.80667,4.90249 -14.29493,3.8789 -8.35004,1.44413 -16.14411,5.63187 -24.85156,5.52734 -27.27156,1.74898 -56.1549,4.08681 -82.146482,-6.20507 -7.725758,-1.86339 -3.946091,-11.52929 0.01172,-15.33985 22.903784,-22.41755 56.619884,-24.30069 85.652344,-33.65039 11.11534,-3.1638 21.65939,-7.74575 33.18164,-8.46679 13.72945,-5.98826 28.9783,-4.45034 43.22461,-8.08399 3.53302,0.24616 5.33464,-7.22327 8.03906,-2.80273 12.62667,0.54459 24.77745,-5.79112 37.5293,-6.00782 43.40702,-8.76311 87.4911,-13.39056 131.67187,-15.90625 16.822,-1.10363 33.63395,-2.59687 50.48633,-3.13476 z m -67.24218,53.69922 c 33.49672,-0.92313 64.9768,12.36454 97.93359,16.54883 36.3266,6.62655 73.59929,9.64924 109.03906,19.85937 10.42829,3.47427 13.47584,15.90231 20.36914,23.38086 0.52708,1.69004 6.96067,8.32819 1.65625,6.15039 -58.6327,-19.96375 -120.21739,-32.87746 -182.28515,-35.19922 -18.0313,-0.86895 -36.11857,3.18579 -53.92383,2.85352 -4.32354,-9.41891 -7.19351,-19.95733 -8.40039,-30.25782 2.101,-5.03917 11.51799,-2.57635 15.61133,-3.33593 z m 432.32226,39.375 c 10.55485,14.19835 12.95748,32.6671 9.58008,49.69336 -2.85873,15.64408 -4.13916,32.06949 -10.00781,46.8789 -8.39557,-1.73641 -17.55618,-4.31797 -24.83008,-9.09375 0.64978,-10.64722 6.13821,-21.05898 8.79883,-31.50586 6.21923,-18.39388 10.67442,-37.65405 16.45898,-55.97265 z m -378.10352,11.84375 c 13.41145,-0.94435 26.21529,2.51881 39.53126,2.84961 3.66719,-0.46047 5.47934,3.10414 9.02539,1.69922 19.53265,2.14818 39.7911,5.17369 58.46093,11.14257 2.18669,2.52629 6.61674,-1.15987 7.66992,2.65821 12.37078,1.01748 25.22816,4.72407 36.42774,9.72656 4.17985,1.97003 10.01645,1.84798 14.55078,3.96875 8.57541,3.01655 18.281,5.30845 25.51172,10.86719 0.18419,3.1455 4.41904,2.49032 5.16797,6.01172 3.69124,4.45775 5.6555,10.06002 8.21875,14.85546 2.71304,-0.27991 1.15905,3.10265 3.75976,3.80665 2.06395,3.85863 4.43219,8.13279 6.98243,11.19726 2.37656,6.28625 9.29279,10.62143 8.60156,18.21875 2.50504,24.56309 -2.18781,50.58417 4.26953,74.54492 0.46226,0.69404 0.93453,1.38125 1.43359,2.05078 0.85723,1.23544 1.70035,2.48547 2.7168,3.59961 1.03802,1.10003 2.18039,2.08108 3.34766,3.04297 1.42596,1.11455 2.96563,2.08315 4.4707,3.08594 4.15416,2.76781 6.51536,5.91859 7.46484,8.86719 2.16658,1.14867 4.31573,2.32642 6.39649,3.62695 1.8633,1.17094 3.7405,2.31948 5.60351,3.49023 0.92222,0.62449 1.86746,1.21295 2.83789,1.76172 1.20973,0.7557 2.39738,1.55417 3.51954,2.43555 1.17557,0.87604 2.38963,1.7031 3.55664,2.5918 1.42384,1.00975 2.83588,2.03571 4.25586,3.05078 1.13586,0.86764 2.30093,1.69421 3.44335,2.55273 1.10115,0.83074 2.17046,1.69904 3.22461,2.58794 1.12478,0.9207 2.27678,1.807 3.31055,2.8339 1.23936,1.2001 2.45621,2.4266 3.5957,3.7227 1.2152,1.4133 2.38731,2.8638 3.39453,4.4355 0.8853,1.3013 1.74811,2.6246 2.53321,3.9883 0.32534,0.5998 0.66455,1.1919 0.99805,1.7871 0.0751,0.028 0.13678,0.085 0.21289,0.1114 0.49576,1.3297 1.29554,2.457 2.04492,3.6171 0.29776,0.418 0.59947,0.8335 0.89843,1.252 0.30784,0.4515 0.86604,1.0038 0.99024,1.0898 5.48064,3.7946 7.70232,8.1817 7.60156,11.8008 0.35029,0.9162 0.87089,1.7211 1.04883,2.75 -0.70528,5.1851 4.80062,8.3583 5.94531,13.1953 4.36804,5.4695 7.90218,15.8013 -0.35156,19.5684 -2.57687,2.2312 -5.35752,3.8705 -8.26562,1.5918 -6.0758,-0.2481 -8.83102,-6.3829 -10.48438,-11.3574 -0.20843,-0.4073 -0.41119,-0.8171 -0.62305,-1.2227 -7.99393,-9.0317 -14.94635,-18.9957 -22.75976,-28.2324 -1.05067,-0.7679 -2.11608,-1.5155 -3.16016,-2.293 -1.9092,-1.5103 -3.80543,-3.0421 -5.55859,-4.7344 -1.25325,-1.3074 -2.48983,-2.632 -3.75586,-3.9277 -0.90113,-0.9879 -1.80577,-1.9759 -2.75,-2.9219 -1.03706,-0.9983 -2.11017,-1.9535 -3.21289,-2.8789 -1.52582,-1.2523 -3.03432,-2.5275 -4.49219,-3.8593 -1.08476,-1.0201 -2.18947,-2.0201 -3.25391,-3.0606 -0.67778,-0.5893 -1.37802,-1.1547 -2.11914,-1.6582 -0.9133,-0.7029 -1.94154,-1.2583 -2.9414,-1.8242 -1.68698,-0.9336 -3.37338,-1.8729 -4.9961,-2.916 -1.53931,-1.0439 -3.06638,-2.1101 -4.45312,-3.35549 -1.54523,-1.21449 -3.04753,-2.48692 -4.42969,-3.88672 -1.50895,-1.41696 -3.00267,-2.85238 -4.50586,-4.27539 -1.02988,-0.98537 -2.0607,-1.97318 -3.16406,-2.87696 -1.37233,-0.97672 -2.76199,-1.92448 -4.13086,-2.90625 -1.28051,-0.93122 -2.56307,-1.86302 -3.89844,-2.71484 -1.08668,-0.71058 -2.17893,-1.4129 -3.25781,-2.13477 -1.28448,-0.7799 -2.55661,-1.57818 -3.75195,-2.49218 -1.03482,-0.82988 -2.07047,-1.65917 -3.10547,-2.48828 -1.87886,-1.40729 -3.76042,-2.81223 -5.5625,-4.31836 -1.86974,-1.47163 -3.71104,-2.97878 -5.58008,-4.45118 -17.15536,-9.68157 -33.84771,-20.2315 -51.51172,-29.04492 -32.83926,-17.89053 -67.39928,-32.62475 -102.94336,-44.16015 -4.05478,-3.17099 -9.31764,-0.19397 -13.91015,-2.57618 -32.4147,-4.91416 -65.43258,-10.41776 -98.23829,-7.17187 -8.71524,2.16998 -18.60825,2.42203 -27.32812,0.18164 -6.72757,-10.06176 -6.37188,-23.34907 -8.85547,-34.82031 -0.72779,-9.52559 -1.74567,-19.94351 -0.12695,-29.35352 -0.0717,-0.59886 -0.15483,-1.19553 -0.20703,-1.79687 -0.0748,-0.61283 -0.13927,-1.22711 -0.19727,-1.8418 -0.0749,-0.98602 -0.084,-1.97505 0.0312,-2.95898 0.10863,-1.00749 0.27678,-2.00592 0.56836,-2.97852 0.31296,-1.03195 0.67476,-2.052 1.17187,-3.01172 0.50909,-0.98389 1.01974,-1.96772 1.61329,-2.9043 0.5257,-0.8714 1.09777,-1.71349 1.72265,-2.51757 0.61311,-0.78879 1.25191,-1.56416 2.06641,-2.15625 0.68822,-0.48855 1.41876,-0.90552 2.20117,-1.22657 0.66599,-0.29231 1.3354,-0.57453 2.0293,-0.79492 0.15683,-0.0507 0.32034,-0.077 0.47851,-0.12305 0.24785,-0.39229 0.59052,-0.79113 1.04297,-1.17968 0.30353,-0.26065 0.4933,-0.43782 0.83203,-0.66992 0.63034,-0.4319 1.32692,-0.74318 2.06055,-0.95313 1.11536,-0.31767 2.24524,-0.59165 3.40234,-0.70508 0.91771,-0.0893 1.8376,-0.17191 2.75977,-0.19531 0.80702,-0.0205 1.47117,0.10368 2,0.32031 19.47389,-2.54572 39.43102,-3.32357 58.9707,-5.91601 10.55225,-0.96802 21.28518,-0.60326 31.9082,-0.69336 z m 190.04493,2.84765 c 9.34851,4.26442 19.01134,8.26587 27.84375,13.83789 4.94881,4.55204 15.02955,4.48397 16.49218,12.07618 -0.10636,9.06335 -1.58191,18.65626 -4.8789,27.14453 -6.39822,2.47197 -9.38031,-6.8271 -12.74414,-10.57227 -8.50343,-14.46406 -19.22639,-27.43948 -26.71289,-42.48633 z m 155.49804,91.12305 c 8.01351,2.99191 17.48186,4.37885 24.29102,9.70898 1.46495,14.11681 -4.00928,28.16841 -3.63086,42.4043 -1.58129,15.03262 3.03888,29.60624 8.79687,43.17578 1.64203,8.39169 1.57155,18.65974 -4.88281,25.1231 -6.38114,-7.45731 -10.89121,-19.09404 -16.60547,-28.01763 -7.36233,-13.97016 -17.22471,-27.03476 -22.42773,-41.92578 1.77049,-17.05373 6.24053,-34.46561 13.75391,-50.00977 0.19894,-0.17676 0.36008,-0.68077 0.70507,-0.45898 z m -396.38281,16.23047 c 14.27376,0.58071 29.42948,-0.49961 42.85352,4.93945 1.42614,3.03765 5.356,2.01053 6.32617,5.12696 9.64749,4.6158 18.81023,11.54043 25.28906,20.30078 13.07397,13.77113 22.96305,30.1503 31.84766,46.78125 10.1247,22.30438 10.55728,47.27525 13.16015,71.20895 0.70027,27.1495 0.35939,55.3046 11.74805,80.5977 0.42648,5.6125 3.79775,9.6066 6.65625,14.1308 4.40979,5.2528 3.87417,10.5051 0.008,15.8477 -5.93847,14.9622 -11.57975,30.1751 -16.56054,45.4199 -0.61886,2.8623 -0.90061,7.3082 -2.42188,10.2617 -0.29459,1.7503 -0.5678,3.5043 -0.87695,5.252 -0.25069,1.5537 -0.57797,3.0936 -0.83203,4.6465 -0.20932,1.1744 -0.46534,2.3382 -0.7168,3.5039 -0.10767,0.4861 -0.15951,0.9819 -0.19531,1.4765 -0.6103,4.7664 -3.20591,6.7053 -8.83789,6.4805 -2.08786,-0.083 -3.2098,-2.0051 -4.20508,-3.4355 -0.83376,-1.5141 -1.33435,-3.1789 -1.90039,-4.8047 -0.62385,-1.8148 -1.09811,-3.6745 -1.55274,-5.5371 -0.43183,-1.8811 -0.90205,-3.7502 -1.32812,-5.6328 -0.4177,-2.2108 -0.79217,-4.4312 -1.17578,-6.6485 -0.084,-0.6273 -0.19925,-1.2494 -0.31641,-1.8711 -7.4195,-24.267 -14.54009,-48.6788 -21.4668,-72.9511 -1.58949,-5.347 0.64287,-11.8772 -3.66211,-16.2207 -9.26301,-27.3699 -17.90941,-55.2737 -32.8457,-80.2461 -1.82508,-3.245 -1.3134,-6.7495 -4.69726,-8.8164 -25.82771,-35.94885 -51.29013,-72.40319 -72.5586,-111.24223 -0.41484,-3.98873 -5.34713,-4.72173 -6.54687,-8.76953 -2.77535,-2.56169 -1.37955,-5.14129 2.2539,-5.22656 13.91511,-3.33317 28.24952,-4.54392 42.55469,-4.57227 z m 76.95313,8.07422 1.32031,0.21875 0.59961,0.0977 c 30.59598,8.5773 59.59294,22.23375 88.10742,36.03321 21.12352,11.30434 41.88917,23.4149 62.71484,35.32226 40.60583,25.0072 80.75823,54.9549 103.95508,97.7207 2.72632,6.8695 9.41764,13.5835 8.07813,21.2988 -31.32007,25.1415 -60.0469,53.6886 -92.59375,77.2715 -7.59328,4.9818 -15.73348,10.9601 -23.62696,14.4356 0.11878,-17.8333 4.69533,-35.5684 9.36914,-52.6895 6.60913,-22.0021 17.55527,-42.8328 21.45118,-65.5586 1.17122,-9.7696 0.48361,-20.3817 -7.08594,-27.6015 -15.84539,-15.0583 -36.84062,-23.1794 -55.42578,-34.2481 -22.67919,-13.04377 -46.90891,-23.66045 -69.01367,-37.46679 -9.38577,-10.49884 -13.90218,-24.54659 -22.77344,-35.57422 -7.38005,-10.5183 -15.34719,-20.79082 -25.07617,-29.25976 z m 303.36523,64.125 c 12.56936,18.05105 21.17747,38.67027 33.59766,56.89257 16.35697,29.9737 36.79711,57.4651 53.13086,87.4102 3.14245,2.873 2.18011,8.2553 6.58984,9.9746 0.91672,5.3974 7.24298,12.999 -0.34766,16.4433 -11.36341,7.6776 -24.31375,14.9532 -38.30664,15.6055 -7.51145,-2.019 -7.15082,-12.4174 -10.39648,-18.168 -12.06538,-34.2372 -28.08171,-67.0252 -44.48242,-99.2812 -4.95524,-7.225 -7.44382,-15.7621 -9.65235,-23.9903 -6.02799,-4.9492 -3.45164,-15.47427 3.68946,-17.75191 1.17563,-4.47814 -0.75402,-9.67686 1.36523,-14.30273 1.21633,-4.18315 2.01629,-9.70447 4.8125,-12.83203 z m -246.71289,24.75586 c 0.0549,-0.005 0.10845,-0.002 0.16211,0.006 0.25755,0.0395 0.51523,0.22415 0.91406,0.46875 0.81249,0.69934 1.57973,1.45056 2.38867,2.15429 0.1145,0.10252 0.23297,0.20045 0.34766,0.30274 0.39466,0.14692 0.81214,0.40459 1.23047,0.83008 0.78206,0.79543 1.56032,1.59759 2.42578,2.30469 0.43606,0.36 1.34259,1.1186 1.80859,1.4707 0.8864,0.6698 1.83259,1.2578 2.75782,1.8711 0.89136,0.5824 1.74682,1.2186 2.64648,1.7891 1.20197,0.7383 2.44271,1.4073 3.71094,2.0253 2.04318,1.0352 4.0747,2.0908 6.11133,3.1387 2.71019,1.3682 5.41156,2.7549 8.13281,4.1016 2.14449,1.0553 4.26247,2.1646 6.42773,3.1758 1.15525,0.4954 2.32251,0.9636 3.50782,1.3828 1.37553,0.4928 2.75054,0.986 4.13867,1.4433 1.35868,0.4711 2.71464,0.9495 4.05273,1.4766 1.20146,0.5025 2.40649,0.9968 3.59766,1.5234 0.69506,0.3236 1.37877,0.6707 2.06836,1.0059 0.18855,-0.1336 0.4494,-0.233 0.61718,-0.377 0.0258,0.3021 0.18072,0.5114 0.23633,0.793 0.43089,0.2132 0.8684,0.4129 1.29688,0.6309 1.66547,0.839 3.34475,1.6524 5.03906,2.4316 1.52173,0.7229 3.05163,1.4316 4.5293,2.2422 1.36317,0.7547 2.69656,1.5587 4.0625,2.3086 1.35794,0.7447 2.75766,1.4093 4.13086,2.125 1.47547,0.7519 2.95035,1.5092 4.36914,2.3652 1.52468,0.9368 3.02361,1.9116 4.51367,2.9024 1.46001,1.0016 2.91541,2.0131 4.30664,3.1093 1.33157,1.0975 2.62537,2.2409 3.86328,3.4434 0.71472,0.2152 1.29981,0.825 1.7793,1.7676 0.70261,0.7229 1.39775,1.4523 2.07812,2.1953 0.39218,0.4411 0.78355,0.8831 1.17383,1.3262 2.09984,0.5915 4.5171,0.6948 3.97656,3.6621 2.28701,2.8421 6.06867,5.1409 4.44922,9.4648 -0.041,0.9041 -0.30232,1.7815 -0.4082,2.6797 -0.004,0.3498 -0.0535,0.6585 -0.14063,0.9199 -0.74462,5.3829 -2.18037,10.6868 -2.76171,15.8516 -1.37323,1.7985 -2.07152,3.9676 -2.83985,6.1191 -0.0781,0.5615 -0.16321,1.1722 -0.22265,1.5586 -0.21361,1.3882 -0.43427,2.7756 -0.64649,4.1641 -0.4811,3.5174 -1.13266,7.0031 -1.90625,10.4668 -0.83495,3.7992 -2.0071,7.5081 -3.30859,11.1679 -1.14906,3.0811 -2.36162,6.138 -3.58203,9.1915 -1.02772,2.5052 -1.96934,5.0454 -2.93164,7.5761 -1.2547,3.4136 -2.4959,6.8324 -3.63868,10.2852 -1.38871,4.2297 -2.62924,8.5041 -3.77734,12.8047 -0.19093,0.6888 -0.36788,1.381 -0.54883,2.0722 -0.0132,0.38 -0.0672,0.7539 -0.006,1.1446 -0.0607,-0.027 -0.13004,-0.023 -0.1914,-0.049 -0.14988,0.7941 -0.34132,1.5812 -0.53711,2.3653 -0.24347,1.0276 -0.54354,2.0409 -0.77149,3.0722 -0.17933,0.8912 -0.32861,1.7891 -0.50195,2.6817 -0.25464,1.5487 -0.44058,3.1076 -0.62695,4.666 -0.21618,1.918 -0.41275,3.8385 -0.61719,5.7578 3.16335,6.545 -1.74034,14.3526 -1.41406,21.3008 -3.10367,20.8483 -9.01664,41.9313 -20.46289,59.8144 -4.0891,2.0747 -3.62959,6.9053 -4.94922,10.3965 -4.69973,1.404 -4.21078,8.2872 -8.125,11.0332 -10.27043,14.6429 -26.68676,25.0216 -33.58985,41.8457 -2.53354,11.6689 -8.40248,23.2109 -8.33789,35.6485 -2.10699,3.2038 -8.98749,3.0566 -11.34179,-0.6817 -12.1612,-11.2323 -9.63305,-29.7941 -8.97657,-44.707 1.5096,-14.3027 7.37341,-27.7134 10.16407,-41.6641 2.52939,-9.1358 2.705,-18.6575 6.51562,-27.5058 0.0303,-0.1532 0.0789,-0.2981 0.10938,-0.4512 -0.006,-0.3207 -0.0394,-0.6139 -0.0273,-0.9512 0.0139,-0.3896 0.0291,-0.7803 0.043,-1.1699 0.12735,-2.9478 0.28181,-5.9012 0.75,-8.8183 0.53872,-3.0109 1.25623,-5.9829 2.17383,-8.9024 0.99094,-3.1878 2.09648,-6.3426 3.36914,-9.4297 1.04445,-2.6063 2.1371,-5.1933 3.12891,-7.8203 0.9291,-2.4187 1.76024,-4.8728 2.68554,-7.293 0.79547,-2.1208 1.49864,-4.2749 2.33399,-6.3808 0.75638,-1.8156 1.43174,-3.6661 2.25586,-5.4531 0.8123,-1.791 1.53643,-3.6195 2.37109,-5.4004 0.44715,-0.9901 0.93111,-1.9629 1.39453,-2.9453 0.15222,-0.4102 0.35902,-0.7922 0.55664,-1.1778 0.33549,-0.6986 0.64962,-1.4073 0.99414,-2.1015 0.76043,-1.5164 1.41398,-3.0812 2.06641,-4.6465 0.24242,-2.6864 0.49263,-5.2975 2.86719,-7.1035 1.31358,-3.7543 1.58383,-7.7504 3.71875,-11.043 0.3673,-1.1786 0.75341,-2.3514 1.09765,-3.5371 0.76156,-2.5312 1.59816,-5.0393 2.42188,-7.5508 0.71549,-2.1815 1.44736,-4.3572 2.16211,-6.5391 0.72913,-2.168 1.4342,-4.3434 2.12695,-6.5234 0.81057,-2.507 1.64601,-5.0083 2.66602,-7.4395 1.08614,-2.6256 2.2334,-5.2256 3.64062,-7.6992 0.99548,-1.8167 2.02137,-3.6165 3.19141,-5.3281 1.07927,-1.5788 2.23623,-2.7657 3.40234,-3.623 4.51497,-10.6561 2.76801,-23.0182 1.58203,-34.1875 -6.49555,-7.576 -9.27123,-17.6241 -16.70117,-24.4434 -0.23235,-2.3275 -1.43126,-3.6936 -3.88672,-4.002 0.29414,-3.2218 -1.26979,-5.5832 -4.4375,-6.6211 -5.54297,-4.4002 -10.88318,-9.508 -13.5625,-15.9648 -2.66462,-3.4592 -7.00891,-5.718 -7.41015,-9.8281 -1.88687,-0.7957 -1.95854,-1.8724 -1.39258,-2.9004 -0.02,-0.048 -0.0435,-0.087 -0.0625,-0.1367 -0.0337,-0.088 -0.0659,-0.1777 -0.0996,-0.2657 -0.24017,-0.647 -0.48458,-1.2931 -0.69336,-1.9511 -0.34881,-1.1361 -0.67751,-2.2771 -1.02344,-3.4141 -0.39422,-1.3006 -0.77487,-2.6079 -1.26953,-3.87499 -0.17398,-0.42695 -1.01063,-2.19049 -0.69141,-2.52149 0.94819,-0.98295 1.3949,-1.36311 1.7793,-1.39843 z m 3.86328,45.58401 c 11.32025,12.3662 23.92945,25.2398 29.46289,41.4238 -1.08929,13.1833 -7.72305,25.6445 -13.02539,37.5371 -1.1781,1.7151 -3.39131,7.3023 -4.92969,3.1113 -12.46037,-21.072 -10.89008,-46.0021 -12.07031,-69.5351 0.28868,-3.5725 -0.83642,-10.5847 0.5625,-12.5371 z m 244.60742,49.666 c 0.54266,-0.015 0.96154,0.1035 1.26563,0.3008 0.15537,0.022 0.31776,0.014 0.46289,0.062 0.55658,0.2174 0.70154,0.5236 0.97851,0.9414 0.0631,0.1385 0.13246,0.2749 0.18946,0.416 0.0794,0.1965 0.13927,0.4007 0.19726,0.6055 0.23485,0.2437 0.45167,0.5042 0.63672,0.789 0.17648,0.2716 0.27063,0.4617 0.41992,0.7422 0.46889,1.0063 0.7933,2.0726 1.11524,3.1328 0.16548,0.5604 0.31965,1.1238 0.46484,1.6895 0.38257,0.8652 0.76355,1.7313 1.15235,2.5937 0.53737,1.2223 1.0925,2.441 1.51562,3.709 0.33539,1.0553 0.633,2.1222 0.88281,3.2012 0.2572,1.1723 0.53008,2.3413 0.75977,3.5195 0.24403,1.2106 0.48929,2.4203 0.82617,3.6094 0.32997,1.2234 0.67127,2.4439 0.98438,3.6719 0.12977,0.5316 0.25576,1.0643 0.3789,1.5976 1.88235,3.3504 4.38887,6.4297 5.75,9.9942 4.06428,4.6332 2.51797,12.2497 7.61328,16.3613 -1.17829,3.525 1.45996,5.7915 3.98438,7.6816 -1.55767,7.3461 1.0574,14.9426 6.95117,19.793 5.27681,5.7565 12.95678,11.257 21.07227,7.75 19.25538,-5.7474 37.30933,-16.0923 52.0039,-29.6445 11.34087,-1.157 21.46012,5.9355 32.11524,8.2949 0.68899,2.7843 4.60331,2.7173 5.83398,3.6894 -10.72108,14.9056 -24.01765,27.8598 -35.93359,41.8731 -11.5732,10.6234 -21.95492,23.2281 -35.41211,31.3652 -4.44343,-1.5084 -2.38531,6.1955 -6.72852,4.8906 -3.49332,2.3051 -2.66275,8.0717 -7.22461,9.7422 -10.76132,5.3176 -18.48851,15.3139 -29.45117,20.0391 -5.61296,-0.8173 -8.9436,5.3613 -14.09766,6.918 -17.84326,9.8774 -33.27111,23.5883 -52.2207,31.541 -23.97187,12.5315 -49.48589,21.643 -73.5293,33.9922 -8.66558,2.9247 -15.97094,9.1589 -24.85156,12.0781 -16.59181,7.6228 -33.58177,14.3737 -51.09961,19.3555 -14.91625,6.087 -32.62633,6.0482 -47.53125,0.1562 -8.63442,-7.3153 -4.89922,-20.4025 -5.79492,-30.3242 1.73866,-15.9529 12.1721,-29.8048 23.22266,-40.9043 6.93238,-7.049 13.94023,-14.0234 20.9082,-21.0371 0.18317,0 0.40024,0.032 0.58594,0.031 1.39461,-1.8411 2.99638,-3.5124 4.73047,-5.0351 1.62439,-1.3335 3.50014,-2.2958 5.36328,-3.2442 1.16861,-0.6164 2.3547,-1.198 3.54101,-1.7793 1.0287,-0.5438 2.05811,-1.0838 3.05078,-1.6914 1.3889,-0.8818 2.69671,-1.8809 4.03516,-2.8359 1.29475,-1.037 2.66074,-1.9839 3.90039,-3.0879 1.35226,-1.1307 2.59823,-2.371 3.76563,-3.6894 1.11621,-1.281 2.18071,-2.6076 3.25976,-3.92 1.33747,-1.6694 2.85043,-3.1817 4.36133,-4.6914 0.38411,-0.3682 0.78945,-0.7131 1.18164,-1.0722 3.59556,-4.9832 9.66526,-8.5451 12.2793,-14.3301 5.15734,-4.5342 8.19062,-10.6101 12.66992,-15.8496 0.1329,-3.3742 3.7981,-1.5994 4.85547,-4.6953 2.01438,-4.1868 3.8227,-8.8595 8.58594,-10.1524 4.83783,-7.6799 10.27647,-15.0441 16.4414,-21.8203 0.76927,-1.9625 2.72892,-2.6387 4.53125,-3.4199 1.20016,-1.5333 2.39885,-3.0676 3.58789,-4.6094 -6.2e-4,-0.019 0.0145,-0.022 0.0137,-0.041 -1.01891,-1.9483 0.28291,-2.3469 1.9961,-2.5762 1.93044,-2.5767 3.87838,-5.1403 5.84765,-7.6875 0.34669,-0.45 0.70991,-0.8866 1.0625,-1.332 0.22988,-0.5108 0.48321,-1 0.98438,-1.2383 1.24737,-1.5443 2.51057,-3.0767 3.78125,-4.6016 1.624,-1.9163 3.34079,-3.7484 5.13281,-5.5078 1.36606,-1.3586 2.84449,-2.5945 4.31055,-3.8418 1.6798,-1.3659 3.36854,-2.7207 5.04101,-4.0957 1.00083,-0.7997 1.97352,-1.6346 2.97657,-2.4316 0.63082,-0.5012 1.25324,-0.928 1.86523,-1.2949 7.42169,-7.3771 15.30564,-15.7675 23.47266,-21.4414 0.11979,-0.1959 0.23229,-0.3962 0.35937,-0.5879 0.63232,-0.9334 1.30389,-1.8412 2.06836,-2.6719 0.81513,-0.8794 1.68954,-1.6983 2.56641,-2.5156 0.93148,-0.8676 1.88904,-1.7072 2.8457,-2.5469 0.78071,-0.67 1.57534,-1.3235 2.39063,-1.9512 0.49295,-0.3841 0.99707,-0.7536 1.5039,-1.1191 0.009,-0.5401 0.25489,-1.1818 0.83789,-1.8438 0.19165,-0.2176 0.38419,-0.434 0.5918,-0.6367 0.50252,-0.5055 1.02535,-0.9897 1.55664,-1.4648 0.65877,-0.5848 1.32461,-1.1628 1.98633,-1.7442 0.66768,-0.5673 1.35051,-1.1175 1.99023,-1.7168 0.66201,-0.6482 1.30676,-1.3123 1.9043,-2.0214 0.67542,-0.7579 1.32648,-1.5356 1.94141,-2.3438 0.63754,-0.7948 1.282,-1.5835 1.94726,-2.3555 0.65869,-0.7723 1.32027,-1.5457 2.04883,-2.2539 0.76147,-0.7423 1.56447,-1.4416 2.45508,-2.0273 0.89796,-0.5783 1.82657,-1.1052 2.81836,-1.5078 0.75876,-0.3112 1.53022,-0.6051 2.33203,-0.7852 0.30302,-0.068 0.58087,-0.1043 0.83398,-0.1113 z m -118.74609,92.1367 c -0.20665,3.356 -1.68426,7.1654 -4.95313,7.6621 -4.56853,9.918 -11.90866,18.4383 -18.02148,27.3652 -9.68424,9.7492 -16.79128,22.9627 -29.57031,29.0391 -2.07824,-3.8007 1.86412,-9.8088 2.41992,-14.1015 2.83285,-7.9639 3.97019,-16.9055 7.99219,-24.1407 13.88607,-8.8141 28.3885,-17.0056 42.13281,-25.8242 z" />
    <path
       style="fill:#000000;fill-opacity:1;stroke:#ffffff;stroke-opacity:1"
       d="m 369.61679,528.86909 c -0.63102,0.55214 -1.38182,0.99182 -1.89304,1.65642 -1.38093,1.7952 -0.30218,5.06033 -0.7099,7.09891 -0.0346,0.17295 -0.20763,0.29929 -0.23663,0.47326 -0.13054,0.78324 0,1.80801 0,2.60294 0,2.4716 -0.008,4.88639 0.23663,7.33554 0.2105,2.10492 -0.13191,4.27841 0,6.38902 0.0863,1.38139 0.13924,2.92326 0.47326,4.25935 0.16561,0.66244 0,1.66426 0,2.36631 0,2.05079 0,4.10159 0,6.15239 0,1.62842 0.0621,5.00029 1.89305,5.91576 0.62185,0.31093 2.04745,-0.15728 2.60293,-0.23663 1.7441,-0.24916 -0.38815,0.43071 1.41979,-0.47326 0.65657,-0.32829 1.5523,-0.56161 2.12967,-0.94652 2.04578,-1.36385 1.41978,-5.07161 1.41978,-7.09892 0,-1.70705 -0.14189,-3.50311 0,-5.20587 0.2069,-2.48276 0.47326,-4.84354 0.47326,-7.33554 0,-0.6466 0.12753,-1.49203 0,-2.12968 -0.12518,-0.62593 -0.50562,-1.28024 -0.70989,-1.89304 -0.28733,-0.862 -0.0984,-1.30002 -0.23663,-2.12967 -0.16099,-0.96598 -0.70871,-1.88831 -0.94652,-2.83957 -0.0574,-0.22956 0.0464,-0.47786 0,-0.70989 -0.0587,-0.29341 -0.63082,-2.64189 -0.70989,-2.83957 -0.41403,-1.03508 -1.09809,-2.18688 -1.41978,-3.31282 -0.0433,-0.15169 0.0586,-0.32679 0,-0.47326 -0.21125,-0.52811 -0.69216,-0.91105 -0.94653,-1.41979 -0.0353,-0.0706 0,-0.15775 0,-0.23663 -0.0789,-0.15775 -0.14588,-0.32202 -0.23663,-0.47326 -0.21015,-0.35025 -1.07387,-1.66244 -1.41978,-1.89304 -0.14675,-0.0978 -0.34854,-0.11192 -0.47326,-0.23663 -0.24943,-0.24943 -0.22383,-0.69709 -0.47326,-0.94652 -0.0558,-0.0558 -0.18086,0.0558 -0.23663,0 -0.33465,-0.33465 0,-0.94653 0,-1.41979 z"
       id="path2488" />
    <path
       style="fill:#000000;fill-opacity:1;stroke:#ffffff;stroke-opacity:1"
       d="m 329.86287,552.05888 c -1.86331,0.37863 -2.57356,1.62704 -3.78609,2.83956 -0.57473,0.57473 -0.34747,-0.0704 -0.70989,0.47327 -0.46758,0.70137 -0.3578,1.66212 -0.70989,2.3663 -0.12718,0.25437 -0.39513,0.43644 -0.47326,0.70989 -0.27956,0.97846 0.051,4.27786 0.23663,5.20587 0.1253,0.62649 0.58007,1.24392 0.70989,1.89305 0.0309,0.15469 -0.0586,0.32679 0,0.47326 0.10562,0.26405 0.39154,0.43749 0.47326,0.70989 0.56144,1.87144 -0.0612,1.17766 0.47326,2.60293 0.24772,0.66058 0.68451,1.23801 0.94652,1.89305 0.56157,1.40391 0.9896,2.82538 1.41979,4.25934 1.48947,4.96491 -0.45182,-2.06535 0.94652,2.12968 0.16245,0.48734 0.84648,2.67602 0.94652,3.0762 0.13527,0.54109 0.10136,1.11532 0.23663,1.65641 0.19646,0.78582 0.36261,0.77117 0.47326,1.65641 0.0391,0.31307 -0.0684,0.63853 0,0.94652 0.0922,0.41465 0.38112,0.76851 0.47326,1.18316 0.0685,0.30799 -0.0446,0.63418 0,0.94652 0.0812,0.56846 0.26,1.12325 0.47326,1.65641 0.0414,0.10357 0.20958,0.12841 0.23664,0.23663 0.0574,0.22957 -0.0389,0.47648 0,0.70989 0.058,0.34795 0.42337,0.59732 0.47326,0.94652 0,3.95506 -0.33465,0.51386 0.23663,1.65642 0.53457,1.06915 0.49603,2.42323 0.94652,3.54945 0.37334,0.93336 0.59345,1.89805 0.94652,2.83957 0.4891,1.30427 1.14996,2.67359 1.41978,4.02272 0.28569,1.42842 -0.45002,-0.0602 0.23663,1.65641 0.0414,0.10357 0.20958,0.12841 0.23663,0.23663 0.11479,0.45913 -0.11478,0.96065 0,1.41978 0.0541,0.21644 0.37349,0.27372 0.47326,0.47327 0.1502,0.30039 0.19967,0.90955 0.47327,1.18315 0.0789,0.0789 0.63101,0.15775 0.70989,0.23663 0.12471,0.12471 0.0955,0.36744 0.23663,0.47326 0.20075,0.15057 2.09841,0.50452 2.3663,0.23663 0.0558,-0.0558 -0.0558,-0.18086 0,-0.23663 0.0558,-0.0558 0.18086,0.0558 0.23663,0 0.92351,-0.92351 -0.0548,-0.12708 0.23663,-0.70989 0.76191,-1.52381 1.41979,-3.37349 1.41979,-5.20587 0,-5.60026 0,-11.20051 0,-16.80077 0,-1.96001 0.0818,-3.76841 -0.23663,-5.67913 -0.19107,-1.1464 0.22774,-2.41074 0,-3.54945 -0.1613,-0.80648 -0.58572,-1.49707 -0.7099,-2.36631 -0.23663,-1.65641 0.47327,1.41978 0,-1.41978 -0.029,-0.17398 -0.19385,-0.30215 -0.23663,-0.47326 -0.16854,-0.67416 -0.13821,-1.44075 -0.23663,-2.12968 -0.46967,-3.28769 0.012,0.52125 -0.47326,-1.41978 -0.2451,-0.9804 -0.46153,-2.08278 -0.70989,-3.07619 -0.0674,-0.26954 -0.32751,-1.7896 -0.47326,-2.12968 -0.11203,-0.2614 -0.34608,-0.45552 -0.47326,-0.70989 -0.22464,-0.44929 -0.29052,-1.16911 -0.47326,-1.65641 -0.53752,-1.4334 -1.28004,-2.9849 -2.12968,-4.25935 -0.26292,-0.39439 -0.98596,-0.78877 -1.18315,-1.18315 -0.10582,-0.21165 0.12175,-0.50699 0,-0.7099 -0.14632,-0.24386 -0.52782,-0.25478 -0.70989,-0.47326 -0.22582,-0.27099 -0.2863,-0.64739 -0.47326,-0.94652 -1.29386,-2.07017 -1.86203,-2.3663 -4.02272,-2.3663"
       id="path2490" />
  </g>
</svg>
